<?xml version="1.0" encoding="UTF-8" standalone="no"?>
<!-- Created with Inkscape (http://www.inkscape.org/) -->

<svg
   xmlns:dc="http://purl.org/dc/elements/1.1/"
   xmlns:cc="http://creativecommons.org/ns#"
   xmlns:rdf="http://www.w3.org/1999/02/22-rdf-syntax-ns#"
   xmlns:svg="http://www.w3.org/2000/svg"
   xmlns="http://www.w3.org/2000/svg"
   xmlns:xlink="http://www.w3.org/1999/xlink"
   xmlns:sodipodi="http://sodipodi.sourceforge.net/DTD/sodipodi-0.dtd"
   xmlns:inkscape="http://www.inkscape.org/namespaces/inkscape"
   width="210mm"
   height="297mm"
   viewBox="0 0 210 297"
   version="1.1"
   id="svg8"
   inkscape:version="0.92.2 (5c3e80d, 2017-08-06)"
   sodipodi:docname="dogg.svg">
  <defs
     id="defs2">
    <clipPath
       clipPathUnits="userSpaceOnUse"
       id="clipPath30">
      <use
         x="0"
         y="0"
         xlink:href="#g26"
         id="use32"
         width="100%"
         height="100%" />
    </clipPath>
    <clipPath
       clipPathUnits="userSpaceOnUse"
       id="clipPath41">
      <use
         x="0"
         y="0"
         xlink:href="#g37"
         id="use43"
         width="100%"
         height="100%" />
    </clipPath>
  </defs>
  <sodipodi:namedview
     id="base"
     pagecolor="#ffffff"
     bordercolor="#666666"
     borderopacity="1.0"
     inkscape:pageopacity="0.0"
     inkscape:pageshadow="2"
     inkscape:zoom="0.22"
     inkscape:cx="400"
     inkscape:cy="313.17758"
     inkscape:document-units="mm"
     inkscape:current-layer="g39"
     showgrid="false"
     inkscape:window-width="1366"
     inkscape:window-height="706"
     inkscape:window-x="-8"
     inkscape:window-y="-8"
     inkscape:window-maximized="1" />
  <metadata
     id="metadata5">
    <rdf:RDF>
      <cc:Work
         rdf:about="">
        <dc:format>image/svg+xml</dc:format>
        <dc:type
           rdf:resource="http://purl.org/dc/dcmitype/StillImage" />
        <dc:title></dc:title>
      </cc:Work>
    </rdf:RDF>
  </metadata>
  <g
     inkscape:label="圖層 1"
     inkscape:groupmode="layer"
     id="layer1">
    <g
       id="g39"
       clip-path="url(#clipPath41)"
       transform="translate(36.079546,13.229167)">
      <g
         inkscape:label="Clip"
         id="g37"
         style="fill:#000000"
         clip-path="none">
        <g
           clip-path="url(#clipPath30)"
           id="g28"
           style="fill:#000000">
          <g
             id="g26"
             inkscape:label="Clip"
             style="fill:#000000">
            <path
               style="fill:#000000;stroke-width:2.32963848"
               d="m -117.54317,394.95331 c -3.53781,-1.32564 -5.42895,-3.93444 -5.42895,-7.48927 0,-5.41385 5.64428,-9.36963 9.88385,-6.92708 4.83359,2.78479 22.065594,1.41205 25.783704,-2.05395 3.51326,-3.27506 3.13298,-3.84991 -4.45195,-6.72989 -4.56134,-1.73194 -14.201154,-4.43719 -21.421814,-6.01172 -7.22065,-1.5745 -15.63554,-5.19983 -18.69974,-8.05629 -7.68431,-7.16332 -7.42637,-18.74263 0.61601,-27.65242 13.7517,-15.23495 52.928024,-15.36222 52.928024,-0.17185 0,5.40236 -0.42079,5.53502 -15.14369,4.77441 -11.020354,-0.56936 -16.768904,0.2103 -21.112604,2.86344 -9.64388,5.89051 -7.40027,9.79399 7.90508,13.7535 32.509944,8.41029 36.796264,11.07782 36.796264,22.89965 0,10.02913 -3.36572,15.55377 -12.01605,19.72375 -7.70473,3.71415 -27.041564,4.29896 -35.638134,1.07783 z m 304.99297,-3.22024 c -2.31322,-5.61946 0.93225,-10.20535 7.22243,-10.20535 5.8214,0 5.86242,-0.1561 5.17079,-19.68119 l -0.69714,-19.68119 -8.44504,-1.12464 c -7.07776,-0.94257 -8.44506,-2.03505 -8.44506,-6.74784 0,-5.45216 0.68409,-5.6843 22.4901,-7.6327 19.15079,-1.71112 23.05108,-1.48655 26.26827,1.51255 5.47509,5.10389 2.24103,10.14632 -7.61277,11.86958 -9.57242,1.67405 -9.65143,1.95647 -7.04656,25.18882 1.43688,12.81528 1.93591,13.68047 8.60801,14.92442 6.04624,1.12724 6.97055,2.22942 6.3165,7.53187 -0.76343,6.18932 -0.8401,6.21366 -21.58621,6.85726 -16.94321,0.52565 -21.08507,0.002 -22.24332,-2.81159 z m -248.783746,-1.77056 c -1.91811,-5.70702 -3.08391,-62.00086 -1.3385,-64.63349 0.9937,-1.49886 3.84822,-2.36306 6.34336,-1.92049 3.62575,0.64315 4.68206,3.14531 5.26108,12.46227 l 0.72447,11.65758 12.07685,-0.25644 c 10.10033,-0.21435 13.14089,0.73506 18.57846,5.80193 5.85755,5.45819 6.50165,7.66413 6.50165,22.26698 0,14.06917 -0.59881,16.31866 -4.53661,17.04225 -5.36806,0.98642 -9.14522,-3.66985 -7.34771,-9.05781 1.86835,-5.60036 -3.26619,-21.36906 -7.44483,-22.86384 -8.76776,-3.13639 -15.65746,4.5027 -15.65746,17.36051 0,4.31003 -0.65905,9.43744 -1.46457,11.39426 -1.73804,4.22217 -10.34341,4.77124 -11.69619,0.74629 z m 63.1110296,1.25329 c -0.64644,-0.99859 -1.56322996,-8.39474 -2.03732996,-16.43591 -0.85096004,-14.43313 -0.77879004,-14.62927 5.63647996,-15.31973 5.6767604,-0.61095 6.6904904,0.2548 8.0171004,6.84683 0.83526,4.15041 1.16832,11.55038 0.74014,16.44434 -0.62288,7.11951 -1.81817,9.03625 -5.9797804,9.58911 -2.8607,0.38001 -5.73017,-0.12593 -6.37661,-1.12464 z m 28.3914304,-0.80642 c -2.74964,-4.14737 -6.25218,-65.73689 -3.86495,-67.96228 1.22236,-1.13948 4.23794,-1.71471 6.70128,-1.2783 3.44616,0.61053 4.64408,3.15389 5.19557,11.03089 l 0.71672,10.23738 13.9315,-0.93939 c 13.23238,-0.89224 14.25586,-0.57999 20.39585,6.22223 9.27461,10.27493 9.03781,24.30533 -0.57948,34.33463 -6.26432,6.5327 -8.4006,7.32749 -19.30295,7.18137 -6.7425,-0.0903 -12.25908,0.66876 -12.25908,1.68696 0,2.69633 -9.0894,2.26951 -10.93446,-0.51349 z m 31.2715,-16.9148 c 3.87073,-3.60832 4.71235,-6.23607 3.91067,-12.21036 -0.4651,-3.46598 -6.75519,-8.99713 -10.23168,-8.99713 -3.74514,0 -11.60317,9.03088 -11.60317,13.33501 0,5.01673 6.0827,11.40707 10.85791,11.40707 1.80104,0 4.98085,-1.59056 7.06627,-3.53459 z m 34.59379,12.7162 c -7.09475,-5.90937 -7.87989,-7.79961 -7.87989,-18.97117 0,-10.65126 0.99918,-13.38009 7.05802,-19.27536 8.079006,-7.86094 19.755336,-10.70072 30.132476,-7.32848 5.56304,1.80778 7.78518,1.61131 10.00752,-0.88491 3.69293,-4.14802 9.28434,-4.11122 11.00653,0.0725 0.74286,1.80465 0.0627,6.91926 -1.5116,11.36585 -3.36004,9.49082 -1.98798,16.25692 4.76949,23.52011 2.6903,2.89164 4.89144,6.65268 4.89144,8.35785 0,4.44989 -7.11183,6.36436 -12.33861,3.32151 -3.57293,-2.08006 -6.03054,-1.7047 -12.34793,1.88588 -11.71089,6.65607 -24.23712,5.89099 -33.787446,-2.0637 z m 27.519916,-10.65487 c 8.73298,-7.36738 3.38608,-23.26882 -7.82418,-23.26882 -6.47485,0 -14.30485,7.91473 -14.30485,14.45965 0,11.09558 13.19334,16.3476 22.12903,8.80917 z m 117.1094,15.65989 c -0.63982,-0.99859 -1.55661,-12.94953 -2.03732,-26.55768 -0.86372,-24.4503 -0.80793,-24.75078 4.73091,-25.48233 3.98264,-0.52598 5.97314,0.57239 6.87715,3.79491 1.06434,3.79406 2.24407,4.19067 7.21972,2.4272 22.63091,-8.02091 39.46504,5.23069 39.37654,30.9967 -0.0434,12.66536 -2.46414,17.12324 -8.69724,16.01697 -3.6798,-0.65311 -4.76444,-3.39172 -5.74303,-14.50086 -1.33229,-15.12439 -5.0796,-21.12506 -13.19227,-21.12506 -8.29201,0 -13.26406,7.06044 -15.20206,21.58729 -1.50159,11.25576 -2.56249,13.38172 -6.97013,13.9675 -2.85944,0.38001 -5.72245,-0.12593 -6.36227,-1.12464 z m 68.08268,-5.01651 c -6.08928,-5.67641 -7.053,-8.26883 -7.053,-18.97245 0,-16.89121 3.29642,-24.45231 10.25858,-23.5305 5.00783,0.66304 5.36405,1.69889 4.63176,13.46841 -0.99511,15.99365 2.2294,22.1137 11.65122,22.1137 9.03972,0 12.01743,-5.12065 12.72366,-21.88034 0.51465,-12.21354 0.90485,-12.98349 6.57929,-12.98349 5.72793,0 6.09302,0.77503 7.2386,15.36597 0.87221,11.10899 2.37624,16.16277 5.42896,18.24219 9.18583,6.25709 1.42559,16.16997 -8.24928,10.53755 -3.66378,-2.13291 -5.66197,-1.97708 -9.86874,0.76967 -2.90114,1.89428 -10.00276,3.44412 -15.78141,3.44412 -8.39543,0 -11.92387,-1.32113 -17.55964,-6.57483 z M -5.5739964,348.17376 c -8.2180996,-8.46522 -2.10929,-22.87801 9.69674,-22.87801 11.2869704,0 17.0816704,15.97764 8.4390204,23.26881 -5.7888104,4.88364 -13.16972036,4.72457 -18.1357604,-0.3908 z M -102.95366,311.8063 c -11.62901,-2.27616 -19.16199,-5.57177 -26.05062,-11.39696 -3.12491,-2.64245 -9.50305,-4.32711 -18.09652,-4.77978 -11.41223,-0.60117 -13.27078,-1.3291 -13.27078,-5.19764 0,-3.54571 1.85216,-4.64284 8.74453,-5.17977 l 8.74454,-0.68123 -0.14311,-14.17212 c -0.10994,-10.89412 1.13449,-16.19056 5.38026,-22.89872 4.27099,-6.74801 5.21631,-10.81435 4.16938,-17.9347 -1.71567,-11.66855 2.16884,-47.21705 7.20709,-65.95458 3.7946,-14.1123 3.75289,-14.68778 -2.44531,-33.73919 -15.76635,-48.461113 -14.21796,-101.099047 3.97763,-135.2198748 14.57537,-27.3321302 31.418074,-28.4845602 80.659864,-5.5190002 l 27.0188,12.6011102 20.1482296,-9.30694 C 29.751454,-19.888515 59.388954,-24.876415 86.362014,-21.587455 l 18.681886,2.27797 7.06266,-8.20203 c 3.88446,-4.51111 15.90515,-16.464654 26.71266,-26.563414 27.36588,-25.57127 39.80771,-28.49999 59.58187,-14.02515 4.89872,3.5859 9.84324,6.51983 10.9878,6.51983 1.14457,0 5.81298,-3.58934 10.37424,-7.9763 18.85896,-18.13831 46.60095,-27.11 77.70524,-25.12968 36.32519,2.31273 66.65784,21.62454 83.30417,53.037044 8.74071,16.4942 8.98988,17.65462 8.98988,41.86564021 0,23.70474779 -0.38866,25.63701079 -8.08874,40.21481279 -14.99629,28.391001 -41.60831,47.279373 -75.15514,53.342805 -8.62601,1.55911 -17.93533,4.395273 -20.68743,6.302587 -4.9866,3.45595 -4.97005,3.5277 4.82574,20.92192 l 9.82952,17.45408 12.27588,-1.31495 c 30.17099,-3.23178 59.09596,22.45788 66.39815,58.97146 3.89154,19.45915 -0.48556,38.97086 -14.75804,65.78673 l -11.59655,21.78819 14.05153,0.6647 c 13.89711,0.65739 21.36115,4.50713 18.14476,9.35853 -1.06126,1.60072 -66.02138,2.3478 -204.14688,2.3478 H -21.735086 l -8.99653,5.45554 c -4.94809,3.00054 -13.33969,6.4846 -18.648,7.74238 -14.6328,3.46719 -42.19401,4.78072 -53.574044,2.55326 z m 5.157474,-16.87582 c -2.1193,-10.5309 2.57551,-10.37675 8.01839,0.26323 l 4.16183,8.13574 14.23402,-1.20319 c 15.20656,-1.28539 18.28726,-3.53241 18.34609,-13.3813 0.0239,-3.9834 1.32545,-6.18551 3.65624,-6.18551 2.41288,0 3.61931,2.24928 3.61931,6.74783 0,8.74731 3.40674,8.52047 13.51207,-0.89971 9.70634,-9.04826 10.84232,-19.22528 3.61283,-32.36677 -9.6792,-17.59444 -24.9094,-25.21478 -50.3949,-25.21478 -13.2537,0 -19.13455,1.22745 -29.635144,6.18552 -33.0597,15.60975 -31.62577,54.03641 2.37487,63.64173 9.867224,2.78751 10.166494,2.58592 8.494394,-5.72279 z m 138.71759,-23.33589 c -7.00811,-9.78319 -11.31049,-13.55805 -16.57045,-14.53874 -9.92488,-1.85039 -22.5458904,-12.86375 -19.6108404,-17.11284 1.89228,-2.73947 4.13829,-2.29485 14.2028604,2.8116 18.3531,9.31176 35.42529,7.67021 49.5202,-4.76153 5.87019,-5.17755 13.65857,-16.09088 13.65857,-19.1389 0,-0.52189 -4.61461,-1.62757 -10.2547,-2.4571 -24.57967,-3.61509 -40.38822,-16.55132 -40.40654,-33.0649 -0.0112,-10.4694 5.96682,-17.3995 22.0888,-25.60504 10.9181,-5.55694 16.23979,-6.699 34.80514,-7.46943 27.962176,-1.16036 41.226226,4.5255 45.093066,19.3299 3.31238,12.68163 -11.44729,34.91342 -27.22314,41.00497 -3.96691,1.53172 -7.212556,3.58437 -7.212556,4.56143 0,3.97445 14.748546,12.95239 25.375416,15.44685 17.29718,4.06017 36.38129,-2.88288 43.57663,-15.85381 2.08941,-3.76652 5.52417,-6.41381 8.32171,-6.41381 8.34564,0 5.50205,8.90095 -6.38211,19.97715 -8.46156,7.88631 -11.97769,13.36416 -14.5998,22.74541 -1.89968,6.79648 -6.11328,16.79269 -9.36352,22.21376 -3.25027,5.42108 -5.90956,10.26015 -5.90956,10.75353 0,0.49338 17.54164,0.61896 38.98142,0.27903 l 38.98142,-0.61803 4.10665,-11.24641 c 2.25866,-6.18551 7.90679,-18.33161 12.55137,-26.99134 6.26837,-11.68725 8.80884,-19.80265 9.85779,-31.48991 2.67038,-29.75328 15.57308,-54.3253 34.57724,-65.84922 l 10.71142,-6.49529 -7.48535,-13.31188 c -9.55517,-16.9929 -10.11257,-17.46174 -20.98552,-17.65157 -9.09555,-0.15881 -9.09823,-0.16172 -9.82694,-10.694359 -0.70006,-10.118643 -1.22515,-10.796953 -13.27076,-17.143699 -14.78105,-7.78801 -32.89345,-25.159311 -40.25163,-38.604668 -7.66957,-14.014349 -12.647,-38.9607188 -10.75152,-53.8856488 0.87578,-6.8958802 4.33922,-19.0440702 7.69652,-26.9959902 l 6.10417,-14.458034 -8.74689,-7.47244 c -9.90962,-8.46577 -16.46977,-9.27815 -26.9252,-3.3343 -9.80464,5.57387 -32.88359,27.839154 -45.25455,43.659044 -9.54666,12.2081902 -17.09119,16.2394902 -19.22485,10.2724902 -1.608856,-4.4992802 -41.568806,-5.0665702 -60.822926,-0.86347 -19.90887,4.34603 -47.2068504,16.358463 -47.2068504,20.7732958 0,6.758641 -7.6939296,5.11996 -27.1119596,-5.7744058 -23.42511,-13.14251 -49.05579,-22.7209502 -60.79834,-22.7209502 -11.061124,0 -19.081974,9.2129102 -26.077064,29.952606 -4.68201,13.881654 -5.44735,21.068528 -5.43334,51.021439 0.0176,37.40826 2.86968,52.36361 14.5082,76.07336 5.84741,11.91221 5.85321,11.99745 1.22541,17.99423 -5.64774,7.31838 -12.13062,38.34324 -12.13062,58.05293 v 14.41756 l 9.96683,-4.73998 c 13.020464,-6.19217 41.234684,-8.29498 56.892734,-4.2402 16.22836,4.20247 37.34279,23.89614 41.27273,38.49556 1.55277,5.76836 2.15279,13.61272 1.3334,17.43191 l -1.4898,6.94398 h 32.69173 32.69173 z m -84.45146,-84.81658 c -4.8969,-4.86399 -5.8435,-8.07016 -5.81239,-19.68652 0.0606,-22.62559 14.51053,-38.76392 33.17609,-37.05253 9.3137896,0.85397 15.62081964,9.88599 18.4167796,26.37389 l 1.93234,11.39518 -13.93451,12.39013 C -25.961306,194.6112 -34.056376,196.18808 -43.530056,186.77801 Z M 179.84292,152.22475 c -3.98123,-0.88912 -12.29741,-3.71346 -18.48035,-6.27631 -10.77293,-4.46537 -11.36177,-5.19864 -14.1198,-17.58326 -1.84189,-8.27076 -2.10689,-15.43458 -0.73607,-19.89813 4.39241,-14.302256 25.28327,-15.814814 40.98026,-2.96708 10.93433,8.94955 15.27823,17.24887 15.27823,29.19009 0,15.20252 -7.53965,20.97007 -22.92227,17.53469 z m -49.70681,124.27516 c 6.82864,-7.72266 14.72021,-24.58544 14.72021,-31.45426 0,-2.04057 -3.59522,-2.98873 -11.46112,-3.02262 -11.48936,-0.0494 -29.51866,-6.18203 -37.182126,-12.64718 -3.7312,-3.14776 -4.4074,-2.88898 -7.66979,2.93526 -6.41445,11.45148 -26.42805,25.50626 -36.32019,25.50626 -7.32682,0 -5.98745,4.33027 4.79832,15.51328 l 11.07031,11.47808 h 27.34874 27.348696 z m 223.59324,-19.18068 c 14.25573,-27.37126 14.31727,-27.57689 14.30004,-47.79719 -0.0144,-16.93539 -0.96006,-21.98849 -5.69442,-30.42944 -11.3518,-20.23916 -28.07306,-31.48989 -46.80152,-31.48989 -13.54558,0 -33.73992,9.3264 -41.96746,19.38195 -8.79189,10.74525 -17.28886,33.88702 -19.06887,51.93476 -1.04369,10.582 -4.00528,20.12186 -9.63165,31.02548 -4.46851,8.65972 -9.74907,20.0467 -11.7346,25.30439 l -3.61006,9.55944 h 54.9456 54.94564 z m -45.37158,-26.65795 c -5.7017,-3.09663 -9.37272,-9.99741 -7.60401,-14.29407 1.43637,-3.48937 20.40983,-12.53253 26.29451,-12.53253 4.13367,0 15.6633,14.45946 15.6633,19.64358 0,2.30933 -1.30295,5.41338 -2.89545,6.89791 -3.50068,3.26334 -25.60577,3.46369 -31.45835,0.28511 z m 33.41416,-25.8649 c -2.10844,-5.12203 2.73176,-12.20809 8.33887,-12.20809 6.08824,0 8.24526,5.01038 4.76602,11.07064 -3.16156,5.5069 -11.02524,6.18945 -13.10489,1.13745 z m -44.87624,-5.41041 c -3.24761,-5.65676 -1.3186,-12.60279 4.03146,-14.51661 5.70205,-2.03971 13.1905,5.30259 12.34097,12.10011 -0.96601,7.72977 -12.35685,9.41099 -16.37243,2.4165 z m 27.96501,-5.22746 c -6.37559,-4.34586 -4.38294,-15.96267 2.90324,-16.92552 11.97213,-1.58211 16.547,10.50237 6.35199,16.77869 -4.09231,2.51932 -5.73639,2.5454 -9.25523,0.14684 z M 279.04719,89.49076 c 6.67265,-4.505942 13.48592,-6.767248 23.20783,-7.702609 28.53568,-2.745463 58.70216,-24.659434 69.78526,-50.694429 4.12337,-9.68608 5.48278,-17.516743 5.55488,-31.99788679 0.0856,-17.20994021 -0.71315,-20.70444021 -7.80078,-34.12538021 -16.04719,-30.386454 -45.135,-47.437694 -81.37236,-47.700364 -16.81702,-0.12191 -21.38513,0.77455 -35.47087,6.96089 -19.80947,8.70014 -35.0339,22.49281 -44.34873,40.178004 -6.35702,12.06947 -7.04368,15.56586 -7.04368,35.86594021 0,20.44636579 0.64769,23.68540279 7.11879,35.60107179 8.85441,16.304157 30.68358,35.597333 46.43474,41.040189 6.37666,2.203469 11.8468,4.146803 12.15589,4.318522 0.30906,0.171712 -0.42946,3.534746 -1.64123,7.473397 -2.82863,9.194207 0.6624,9.397802 13.42026,0.782655 z m 2.03676,-27.915854 c -0.71022,-1.725321 -0.35866,-10.41636 0.78122,-19.31342 1.13989,-8.897058 1.54329,-16.669818 0.89645,-17.2728 -0.64684,-0.602981 -4.5239,-1.039454 -8.61575,-0.969939 -6.05087,0.102793 -9.6886,2.622113 -19.48697,13.495674 -11.98975,13.305374 -19.35752,16.576829 -22.1354,9.828597 -0.94782,-2.302581 2.19002,-7.005265 8.97351,-13.448519 5.73705,-5.449306 9.95583,-10.248828 9.37506,-10.665609 -0.58078,-0.416777 -5.39911,-1.70322 -10.70742,-2.858754 -7.29164,-1.587277 -9.65147,-3.200898 -9.65147,-6.599534 0,-5.1497338 6.42541,-5.6285258 36.85215,-2.746059 l 17.54923,1.662515 1.47712,-6.8849228 c 1.15803,-5.39768999 2.57929,-6.73828999 6.57947,-6.20606999 3.73439,0.49686 5.29704,2.53858999 5.82854,7.61544199 0.72572,6.9318428 0.74136,6.9387508 22.92226,10.1217548 20.43649,2.932678 22.26086,3.612615 23.01363,8.577142 0.81287,5.360944 0.72266,5.383229 -15.68364,3.873623 -9.07568,-0.83509 -19.94772,-2.094501 -24.16008,-2.798695 -7.59857,-1.270268 -7.67021,-1.194502 -9.09712,9.622054 -2.66282,20.184982 -4.80897,26.572754 -9.18966,27.35203 -2.32641,0.41384 -4.81093,-0.659189 -5.52113,-2.38451 z M 321.1704,51.308073 c -9.4215,-7.800411 -12.65861,-11.905615 -11.53684,-14.630685 0.85759,-2.083353 3.15598,-3.787914 5.10755,-3.787914 5.86745,0 26.76403,18.264261 26.76403,23.39259 0,7.951499 -6.70355,6.311772 -20.33474,-4.973991 z M 312.00318,3.3951252 c -14.44558,-3.89106999 -15.44997,-13.9074102 -4.44429,-44.3215802 5.71829,-15.802484 11.19604,-21.393144 16.29958,-16.635594 2.29525,2.13962 2.36027,4.3614 0.27821,9.50345 l -2.71735,6.710984 13.66221,3.53336 c 7.51421,1.94334 15.01943,3.93837 16.67829,4.4334 4.10374,1.22462 3.82821,9.26655 -0.36893,10.76794 -1.86176,0.66599 -8.54905,-0.2379 -14.8607,-2.00863 -17.51165,-4.91292 -19.90755,-4.38209 -21.75963,4.82097 -0.93496,4.64586 -0.56574,9.02151 0.8745,10.3641102 1.37095,1.278 9.58943,2.85467 18.26331,3.50371 15.24091,1.14046 20.75459,4.29284 17.11367,9.78458 -1.73252,2.61321 -28.79793,2.29642 -39.01887,-0.4567 z m -59.12784,-9.89232 c -12.91527,-1.66894 -24.58753,-3.6711802 -25.93833,-4.4494202 -3.79044,-2.18379 -2.92155,-6.52598 2.1094,-10.54157 2.73876,-2.18599 5.2326,-8.16616 6.23292,-14.94622 2.02221,-13.706244 6.15198,-19.720894 12.08377,-17.598974 3.45468,1.23581 3.9843,3.144 2.7547,9.9249 -4.9492,27.293214 -5.05477,25.264534 1.31463,25.264534 5.4242,0 6.29077,-1.68675 11.84458,-23.05511 5.21489,-20.064334 6.68813,-23.148524 11.3569,-23.775194 6.59153,-0.88475 8.75048,3.61196 5.5278,11.51354 -2.30353,5.648 -1.93811,6.06828 7.29045,8.38479 8.01761,2.01255 9.58385,3.301484 8.96201,7.375214 -0.65914,4.31815 -2.04503,4.86016 -11.06472,4.32739 -10.69625,-0.6318 -10.89817,-0.46487 -13.66195,11.29313 -1.25132,5.32353 -0.69098,6.1898 4.02099,6.21623 11.28873,0.0633 16.61626,2.60766 15.85623,7.5726402 -0.93101,6.0819 -7.59872,6.51174 -38.68938,2.49412 z"
               id="path21"
               inkscape:connector-curvature="0" />
          </g>
        </g>
      </g>
    </g>
  </g>
</svg>
